<?xml version='1.0' encoding='utf-8'?>
<svg xmlns="http://www.w3.org/2000/svg" version="1.1" width="600px" height="976px" viewBox="0 0 600 976"> <g id="layer1"> <g style="fill:rgb(0,0,0); fill-opacity:1.0; stroke-linejoin: miter"> <path d="M186.39691,687.9461L186.39691,687.9461L203.74023,635.90485L204.20953,636.60767C198.57907,636.20416,192.38596,635.81744,190.38766,629.75055L190.38766,629.75055C188.87933,625.17126,189.82437,617.3604,190.88373,608.4775L190.88373,608.4775C191.17973,605.99536,191.48822,603.4081,191.75998,600.77313L191.75998,600.77313C193.01222,588.6315,193.51207,575.24756,194.01239,561.8422L195.06058,562.0121L195.01208,562.1783L195.01208,562.1783C192.40097,571.1246,189.76862,580.11804,186.03566,587.8406L186.03566,587.8406C184.46062,591.0991,182.69333,594.1244,181.01938,596.99054L181.01938,596.99054C179.49295,599.60406,178.04852,602.078,176.88087,604.4935L176.88087,604.4935C176.27008,605.7572,175.73749,606.9999,175.31052,608.2323L175.31052,608.2323C174.62749,610.2036,174.20789,612.168,173.89603,614.0762L173.89603,614.0762C173.70728,615.2308,173.55862,616.36053,173.41382,617.461L173.41382,617.461C173.27902,618.4855,173.14719,619.4874,172.9906,620.4455L172.9906,620.4455C172.72461,622.0727,172.38234,623.6063,171.81186,624.97156L171.81186,624.97156C169.94928,629.4288,165.73384,631.8875,161.72949,634.2438C161.60678,634.31604,161.46031,634.33624,161.32257,634.3002L161.32257,634.3002L144.5375,629.90173L144.54037,629.9025C142.5711,629.3981,141.00674,629.04236,139.89911,629.95935L139.89914,629.95935C139.62897,630.183,139.37274,630.4904,139.0304,630.90533L139.03043,630.9053C138.57442,631.458,138.01006,632.1435,137.16333,632.8445L137.16333,632.8445C135.96707,633.8348,134.23935,634.831,131.4766,635.60333L131.4766,635.60333C125.37883,637.3079,114.09177,637.94696,102.91135,638.58325L103.02554,638.5642C98.170135,639.9267,93.150314,641.34515,89.55882,640.9475L89.55885,640.9475C87.428406,640.7117,85.81737,639.8435,84.577225,639.17865L84.577225,639.17865C83.69362,638.70496,83.08356,638.38776,82.56674,638.3306L82.56682,638.3307C82.541046,638.3278,82.52124,638.3261,82.49736,638.3246L82.49748,638.3246C81.93939,638.28973,81.42786,638.5875,80.62193,639.0914L80.62196,639.0914C79.78163,639.61676,78.723236,640.2849,77.23761,640.4489L77.23761,640.4489C75.30414,640.66235,71.98566,639.98816,71.71025,637.4929L71.71025,637.4929C71.68144,637.23206,71.68945,636.96014,71.73558,636.678L71.735565,636.6779C71.82776,636.1144,72.07114,635.51416,72.47412,634.8769L72.47412,634.8769C74.86917,631.0898,83.63728,625.0461,92.2001,619.1288L91.97122,619.52295C92.15817,617.3558,92.30586,615.6002,89.35806,614.65533L89.35806,614.65533C88.31354,614.32056,86.89368,614.09265,85.2301,613.82733L85.2301,613.82733C83.12337,613.4912,80.67529,613.10187,78.33124,612.3505L78.33124,612.3505C76.87781,611.88464,75.45181,611.2759,74.161026,610.4454L74.161026,610.4454C70.736786,608.24207,68.15927,604.37164,68.5948,601.7071L68.5948,601.7071C68.797516,600.4672,69.64331,599.5564,71.13333,599.23553L71.1333,599.23553C74.01062,598.6159,79.6736,600.1772,85.348816,601.72424L85.348816,601.72424C88.77084,602.65717,92.258545,603.6075,95.31712,604.1674L95.31712,604.1674C100.684326,605.15,104.74216,604.93164,108.20346,604.74457L108.20346,604.74457C110.017944,604.64655,111.695435,604.5552,113.29823,604.66L113.2982,604.66C117.96451,604.9649,121.93207,606.9255,125.79408,608.8269C126.05917,608.9574,126.16826,609.278,126.03775,609.54315C125.90724,609.8082,125.58655,609.9173,125.32147,609.78687L125.32147,609.78687C121.43207,607.87195,117.64963,606.0166,113.228455,605.72766L113.228424,605.72766C111.70073,605.62775,110.09097,605.7141,108.26123,605.81305L108.26123,605.81305C104.7883,606.00073,100.62265,606.2265,95.12445,605.2199L95.12445,605.2199C92.01204,604.65015,88.477646,603.6862,85.06738,602.75653L85.06738,602.75653C79.222916,601.1633,73.90825,599.7324,71.35858,600.28156L71.35855,600.28156C70.25641,600.5188,69.775696,601.1153,69.65077,601.87964L69.65077,601.87964C69.32126,603.89557,71.42796,607.4144,74.739975,609.54553L74.739975,609.54553C75.930725,610.3117,77.266235,610.8856,78.65782,611.3316L78.65782,611.3316C80.91138,612.054,83.280716,612.43286,85.39862,612.7707L85.39862,612.7707C87.032166,613.03125,88.54393,613.2708,89.68466,613.6364L89.68466,613.6364C93.45233,614.8441,93.22525,617.4355,93.03729,619.6149C93.02359,619.7738,92.93965,619.91846,92.80841,620.0091L92.80841,620.0091C84.11218,626.0186,75.622635,631.9002,73.37846,635.44885L73.37846,635.44885C73.03146,635.9975,72.854996,636.4627,72.79155,636.85065L72.79155,636.8506C72.76001,637.0435,72.75638,637.21765,72.7738,637.37555L72.7738,637.37555C72.93184,638.80774,75.14252,639.60364,77.12019,639.3854L77.12019,639.3854C78.33774,639.2509,79.21042,638.712,80.05475,638.1841L80.05478,638.1841C80.78192,637.72943,81.5988,637.1963,82.564255,637.25665L82.56442,637.2567C82.60681,637.2594,82.64302,637.2626,82.684296,637.2671L82.68436,637.26715C83.45351,637.35223,84.27023,637.80005,85.08276,638.23566L85.08276,638.23566C86.325195,638.9016,87.7731,639.67334,89.676544,639.88403L89.676575,639.88403C93.011536,640.2533,97.790375,638.9219,102.73642,637.534C102.77371,637.52356,102.811905,637.5172,102.850586,637.515L102.850586,637.515C114.0965,636.875,125.2325,636.2378,131.18854,634.5728L131.18854,634.5728C133.82607,633.8355,135.41466,632.903,136.481,632.02026L136.481,632.02026C137.24243,631.3899,137.75125,630.7744,138.20506,630.2243L138.2051,630.2243C138.5295,629.8311,138.85245,629.43677,139.21683,629.13513L139.21686,629.1351C140.82718,627.80206,143.01923,628.40826,144.80585,628.8659L144.80872,628.8667L161.59381,633.2652L161.18689,633.3216C165.26086,630.9244,169.12332,628.6303,170.82462,624.559L170.82462,624.559C171.34709,623.30865,171.67343,621.87085,171.93463,620.2729L171.93463,620.2729C172.08797,619.33484,172.2178,618.3486,172.35295,617.3214L172.35295,617.3214C172.49744,616.2233,172.64822,615.0771,172.84006,613.90356L172.84006,613.90356C173.15752,611.96136,173.58913,609.9323,174.29951,607.88196L174.29951,607.88196C174.74352,606.60046,175.2935,605.3189,175.91751,604.0279L175.91751,604.0279C177.10677,601.56757,178.5738,599.05634,180.09544,596.4509L180.09544,596.4509C181.77219,593.58,183.51837,590.58984,185.0723,587.37494L185.0723,587.37494C188.7594,579.7472,191.36813,570.84424,193.98494,561.8785L193.98494,561.8785L194.03345,561.7123C194.10907,561.4532,194.36604,561.29095,194.6326,561.3341C194.89911,561.3773,195.0917,561.6123,195.08163,561.8822L195.08163,561.8822C194.5816,575.27924,194.08087,588.6998,192.82433,600.8829L192.82433,600.8829C192.55162,603.52716,192.24197,606.1238,191.94618,608.60425L191.94618,608.60425C190.87085,617.62103,189.98972,625.1223,191.40392,629.4158L191.40392,629.4158C193.13939,634.68475,198.43137,635.1208,204.28601,635.5403C204.45082,635.5521,204.60092,635.6394,204.69269,635.77686C204.78445,635.91425,204.80759,636.08636,204.75533,636.24316L204.75533,636.24316L187.41205,688.28436C187.31862,688.56464,187.01566,688.7162,186.73532,688.62274C186.45499,688.52936,186.3035,688.2263,186.39691,687.9461 Z"/> </g> <g style="fill:rgb(0,0,0); fill-opacity:1.0; stroke-linejoin: miter"> <path d="M123.807434,608.12164L123.807434,608.12164L127.54036,602.4098L127.455246,602.65594C127.97546,596.69666,128.50075,590.62427,130.32951,585.998L130.32951,585.99805C131.63902,582.6852,133.60896,580.13025,135.41553,577.7832L135.41554,577.7832C136.14722,576.8326,136.85155,575.9172,137.48506,574.99243L137.48508,574.99243C139.68802,571.77673,141.08276,568.38135,142.49965,564.9276L142.48038,565.27826C141.83754,563.0386,141.2207,560.78125,143.36597,554.8954L143.36597,554.8954C145.48344,549.08563,150.32448,539.6492,155.13693,530.266L155.0781,530.4988C155.31071,519.5067,155.54347,508.46997,157.37169,497.31015L157.37169,497.31015C159.1996,486.1521,162.62044,474.88232,166.02797,463.65356C166.06892,463.51865,166.16142,463.40536,166.28545,463.33835L166.28545,463.33835L225.46162,431.339L225.26683,431.51913L228.88007,425.9306C229.0405,425.68243,229.37169,425.6114,229.61986,425.77182C229.86798,425.9322,229.93909,426.26337,229.77863,426.51154L229.77863,426.51154L226.16537,432.10004C226.11661,432.1755,226.0496,432.23746,225.97058,432.28015L225.97058,432.28015L166.79439,464.27954L167.05185,463.9643C163.64024,475.20642,160.24199,486.40753,158.4276,497.48315L158.4276,497.48315C156.61354,508.55658,156.38074,519.5176,156.14787,530.5214C156.14613,530.6024,156.12604,530.6821,156.08902,530.7542L156.08902,530.7542C151.26015,540.16943,146.45992,549.5311,144.37128,555.2618L144.37128,555.2618C142.31038,560.91614,142.9226,562.94055,143.50883,564.98303C143.54207,565.0988,143.53526,565.2223,143.48958,565.3337L143.48958,565.3337C142.07808,568.7743,140.64456,572.27356,138.36778,575.5971L138.3678,575.5971C137.71452,576.5507,136.99176,577.4896,136.26344,578.4358L136.26346,578.4358C134.44897,580.7933,132.57123,583.2375,131.32457,586.3913L131.32458,586.39136C129.56528,590.84186,129.04587,596.7385,128.52118,602.749C128.51352,602.83673,128.48427,602.92126,128.43607,602.9951L128.43607,602.9951L124.703125,608.70703C124.54148,608.9543,124.209915,609.0238,123.96259,608.8622C123.71525,608.70044,123.645775,608.3689,123.807434,608.12164 Z"/> </g> <g style="fill:rgb(0,0,0); fill-opacity:1.0; stroke-linejoin: miter"> <path d="M228.85208,426.62134L228.85214,426.62143L228.84216,426.59827L228.8421,426.59818C225.88586,419.7417,222.91315,412.8453,220.78082,404.40012L220.78082,404.40012C218.64783,395.9522,217.3589,385.96884,216.86124,378.18216L216.86124,378.18216C216.36293,370.38553,216.6575,364.78134,216.95056,359.20096L216.95267,359.28415C216.41376,354.0805,215.84901,348.72092,217.66566,343.79318L217.66566,343.79318C219.48389,338.86118,223.66072,334.41077,228.73413,331.905L228.73413,331.905C233.8021,329.40192,239.75945,328.84705,245.58998,328.29773C245.61661,328.29523,245.6434,328.29474,245.6701,328.2962L245.67004,328.2962L245.70837,328.29834L245.70844,328.29837C256.45972,328.90125,267.48132,329.5028,274.3155,335.0671L274.3155,335.0671C281.17004,340.64804,283.71198,351.1151,284.91248,359.20166L284.91248,359.20166C286.12122,367.34372,285.9972,373.3035,285.8744,379.22894L285.16965,378.71057C286.26193,378.34482,287.4712,377.9338,288.5532,377.9338L288.5532,377.9338C290.2462,377.93384,291.4956,378.92642,291.952,381.5727L291.952,381.5727C292.70276,385.92593,291.46667,395.3982,289.61353,400.22122L289.61353,400.22122C287.67938,405.2551,284.98273,405.44528,282.44138,405.58475L282.94666,405.0299L283.08496,408.61243C283.09637,408.90768,282.86624,409.15625,282.571,409.16766C282.27576,409.17905,282.02716,408.94897,282.01578,408.65372L282.01578,408.65372L281.87744,405.07123C281.8662,404.77933,282.09113,404.5324,282.38275,404.5164L282.38275,404.5164C284.71695,404.38828,286.8959,404.31088,288.61472,399.83746L288.61472,399.83746C290.41452,395.15323,291.60876,385.87842,290.89758,381.75452L290.89758,381.75452C290.5028,379.4656,289.5818,379.00378,288.55322,379.00378L288.55322,379.00378C287.68213,379.00378,286.65405,379.3419,285.50937,379.7252C285.34433,379.78046,285.16272,379.75198,285.02252,379.64883C284.8823,379.5457,284.80103,379.3808,284.80463,379.2068L284.80463,379.2068C284.92728,373.28867,285.0487,367.4055,283.8541,359.3588L283.8541,359.3588C282.65128,351.25674,280.14114,341.1901,273.6399,335.89685L273.6399,335.89685C267.13397,330.59982,256.53134,329.97693,245.64854,329.36667L245.6486,329.3667L245.61026,329.36453L245.69034,329.363C239.81512,329.91653,234.06674,330.4646,229.20795,332.86438L229.20795,332.86438C224.35461,335.26144,220.38364,339.5139,218.6696,344.1633L218.6696,344.1633C216.95401,348.81693,217.47258,353.9175,218.01697,359.1739C218.01982,359.2015,218.02054,359.22934,218.01907,359.25705L218.01907,359.25705C217.7263,364.832,217.43498,370.38348,217.92905,378.11392L217.92905,378.11392C218.42377,385.85458,219.70543,395.77017,221.81824,404.13815L221.81824,404.13815C223.92697,412.48996,226.86658,419.31378,229.82466,426.17453L229.82462,426.1744L229.8346,426.19757C229.95163,426.46902,229.8265,426.78378,229.5552,426.90076C229.28387,427.01776,228.96907,426.89264,228.85208,426.62134 Z"/> </g> <g style="fill:rgb(0,0,0); fill-opacity:1.0; stroke-linejoin: miter"> <path d="M283.08932,408.88318L283.08932,408.88318C285.2326,409.71826,287.40012,410.56247,289.40286,411.53204L289.40283,411.53204C291.45532,412.5257,293.35968,413.66248,294.91153,415.08102L294.91153,415.08102C297.97324,417.87973,299.5873,421.71387,301.15292,425.41223L300.85895,425.12402L357.2653,447.68365C357.3617,447.7222,357.44476,447.78793,357.50446,447.87292L357.50446,447.87292C364.46713,457.78845,371.47266,467.76224,374.80194,474.51297L374.80194,474.51297C378.16742,481.337,377.805,484.92307,377.43652,488.46045L377.30133,488.04626L377.33075,488.07883L377.33057,488.07867C380.9089,492.0342,384.6081,496.1143,385.9011,499.90192L385.9011,499.90192C387.22028,503.76633,386.0324,507.2745,384.92648,510.58722L384.79865,510.04086C388.17377,513.43964,391.57446,516.8635,393.7605,519.4777L393.7605,519.4777C395.9632,522.1118,396.93695,523.9283,397.89673,525.71875L397.88794,525.70294L403.2754,534.9874L403.02823,534.76624L403.07358,534.78625L403.0733,534.7861C409.14984,537.45734,415.0799,540.05,419.80676,540.2382L419.80676,540.2382C424.2424,540.4149,427.65503,538.46674,431.22186,536.417L431.2219,536.417C431.41364,536.30676,431.61456,536.19135,431.80716,536.0812L431.80713,536.0812C435.56805,533.92883,439.40524,531.906,443.2346,529.8872L443.237,529.8859L443.2387,529.885C443.5008,529.7486,443.82385,529.85034,443.96033,530.1125C444.0968,530.3745,443.995,530.69763,443.7329,530.83405L443.7329,530.83405L443.7312,530.83496L443.73358,530.8337C439.90198,532.8537,436.08026,534.86865,432.3386,537.0098L432.33856,537.0099C432.146,537.12006,431.9479,537.2338,431.755,537.34467L431.755,537.34467C428.21783,539.37744,424.55,541.498,419.76416,541.3074L419.76416,541.3074C414.78815,541.1092,408.64545,538.40436,402.6427,535.76556L402.64243,535.7655L402.5971,535.74554C402.49353,535.69995,402.4069,535.6225,402.3499,535.5244L402.3499,535.5244L396.96246,526.24L396.95367,526.22424C396.00598,524.45624,395.0725,522.71466,392.93967,520.164L392.93967,520.164C390.7901,517.59344,387.42786,514.207,384.0394,510.7948C383.89703,510.65137,383.8476,510.44003,383.91156,510.24838L383.91156,510.24838C385.0338,506.8868,386.07416,503.72086,384.8885,500.2476L384.8885,500.2476C383.68335,496.7174,380.17712,492.82022,376.5371,488.79648L376.53696,488.7963L376.5075,488.76376C376.40576,488.65128,376.35657,488.50064,376.3723,488.34958L376.3723,488.34958C376.7279,484.9356,377.08948,481.57037,373.84232,474.98624L373.84232,474.98624C370.5589,468.32846,363.61545,458.43753,356.62878,448.48782L356.86795,448.67712L300.4616,426.1175C300.32907,426.0645,300.22324,425.96075,300.1676,425.82935L300.1676,425.82935C298.58435,422.08932,297.04965,418.48514,294.1896,415.87076L294.1896,415.87076C292.74457,414.54984,290.942,413.46597,288.9366,412.49512L288.9366,412.49512C286.97897,411.54736,284.85205,410.71832,282.70087,409.88016C282.42554,409.77292,282.28934,409.46274,282.3966,409.18744C282.50388,408.9121,282.81403,408.7759,283.08932,408.88318 Z"/> </g> <g style="fill:rgb(0,0,0); fill-opacity:1.0; stroke-linejoin: miter"> <path d="M363.2334,688.218L363.2334,688.218C362.9334,682.6419,362.63617,677.119,359.23114,668.76904L359.23114,668.76904C355.80978,660.379,349.25595,649.1437,342.67065,637.85706C342.5381,637.62994,342.59033,637.3401,342.7938,637.1735L342.7938,637.1735C351.13718,630.3419,359.19598,623.70184,359.62326,613.5387L359.62326,613.5387C359.9078,606.7708,356.8239,598.39136,353.84546,590.32385L353.84546,590.32385C352.32364,586.20184,350.83432,582.1693,349.88116,578.53455L349.88116,578.53455C347.06073,567.7789,348.9403,560.5352,350.7917,553.3898C350.845,553.18396,351.0151,553.0293,351.22504,552.99567C351.43497,552.9621,351.64484,553.05597,351.75974,553.23486L351.75974,553.23486C358.93298,564.4047,366.03577,575.45264,373.50244,581.3974L373.50244,581.3974C380.5155,586.9811,387.8761,588.0721,395.3858,588.923L395.3858,588.923C395.79324,588.9692,396.27182,589.02246,396.68002,589.06793C396.9737,589.10065,397.18524,589.3652,397.15253,589.6588C397.11984,589.9525,396.8553,590.16406,396.56165,590.13135L396.56165,590.13135C396.1704,590.08777,395.6571,590.0306,395.26532,589.98615L395.26532,589.98615C387.7409,589.1336,380.1064,588.023,372.83594,582.2345L372.83594,582.2345C365.19885,576.154,357.99396,564.9226,350.8594,553.813L351.82745,553.65814C349.98425,560.7721,348.16928,567.78796,350.91617,578.2631L350.91617,578.2631C351.85345,581.8376,353.3224,585.81775,354.8492,589.95325L354.8492,589.95325C357.80035,597.9467,360.98785,606.5539,360.69232,613.5836L360.69232,613.5836C360.24127,624.3118,351.71426,631.2523,343.47165,638.0014L343.59482,637.3179C350.16394,648.5767,356.76526,659.8884,360.22192,668.36505L360.22192,668.36505C363.6952,676.8823,363.99988,682.5482,364.30182,688.16064C364.3177,688.4556,364.09137,688.7077,363.79633,688.7236C363.50128,688.73944,363.24924,688.5131,363.2334,688.218 Z"/> </g> <g style="fill:rgb(0,0,0); fill-opacity:1.0; stroke-linejoin: miter"> <path d="M396.63974,589.064L396.63974,589.064L402.79315,594.2519L402.18784,594.1936L417.71048,585.5417L417.63574,585.592L463.09802,549.0448C463.3283,548.8597,463.6651,548.89624,463.85022,549.1265C464.03534,549.3568,463.99878,549.6936,463.76843,549.87866L463.76843,549.87866L418.30612,586.42596C418.28268,586.4448,418.2577,586.4617,418.23138,586.47626L418.23138,586.47626L402.70877,595.1282C402.51453,595.23645,402.2735,595.21326,402.10345,595.0699L402.10345,595.0699L395.95004,589.882C395.72412,589.69165,395.69543,589.3541,395.88586,589.12823C396.0763,588.9023,396.41385,588.87354,396.63974,589.064 Z"/> </g> <g style="fill:rgb(0,0,0); fill-opacity:1.0; stroke-linejoin: miter"> <path d="M443.31866,530.7067L443.31866,530.7067C442.34106,529.4195,441.3595,528.0825,441.6327,524.3077L441.6327,524.3077C441.8983,520.6386,443.3563,514.56824,444.79404,508.57446C444.80463,508.53027,444.8208,508.48758,444.8422,508.4475L444.8422,508.4475C447.8083,502.88574,450.7295,497.40216,451.96954,492.98636L451.96954,492.98636C452.56177,490.87738,452.7716,489.00522,452.94247,487.4753L452.94247,487.4753C453.05463,486.4712,453.15378,485.56897,453.34827,484.87634L453.34827,484.87634C453.4696,484.44415,453.64178,484.03915,453.92032,483.72644L453.92032,483.72644C454.34808,483.24615,454.9339,483.07974,455.53403,483.07974L455.53403,483.07974C456.91248,483.07977,458.7915,483.9734,460.48425,484.76575C460.75186,484.89102,460.86725,485.2095,460.742,485.4771C460.6167,485.74472,460.29822,485.8601,460.03064,485.73483L460.03064,485.73483C458.22934,484.89166,456.61423,484.14975,455.53403,484.14975L455.53403,484.14975C455.12744,484.14975,454.88004,484.2576,454.71936,484.43805L454.71936,484.43805C454.59564,484.57697,454.47986,484.8043,454.37842,485.16562L454.37842,485.16562C454.21292,485.7549,454.12183,486.55566,454.00586,487.5941L454.00586,487.5941C453.83496,489.12405,453.61792,491.07407,452.99966,493.27563L452.99966,493.27563C451.72107,497.8288,448.73126,503.4289,445.78632,508.951L445.8345,508.824C444.38583,514.86346,442.95752,520.826,442.69992,524.38495L442.69992,524.38495C442.44995,527.8381,443.30838,528.924,444.1708,530.0596C444.3495,530.2949,444.3036,530.63055,444.0683,530.80927C443.83298,530.988,443.49738,530.942,443.31866,530.7067 Z"/> </g> <g style="fill:rgb(0,0,0); fill-opacity:1.0; stroke-linejoin: miter"> <path d="M405.0852,409.8456L405.0852,409.8456C406.5747,392.64987,408.06805,375.27853,416.48526,361.834L416.48526,361.834C424.9225,348.35745,440.2695,338.87784,461.02112,337.88306L461.02112,337.88306C462.22256,337.82544,463.44098,337.7963,464.6747,337.7963L464.6747,337.7963C484.69672,337.7963,508.65735,345.49292,520.00836,364.3125L520.00836,364.3125C532.0299,384.24393,529.78564,416.4856,520.5461,436.15845L520.5461,436.15845C516.3323,445.13043,510.6615,451.49762,505.30554,457.51498L505.30554,457.51498C500.4167,463.00757,495.80652,468.19235,492.68726,474.83386L492.68726,474.83386C491.6991,476.9379,490.8604,479.18918,490.21188,481.642L490.21185,481.642C485.24762,500.41678,491.36877,531.02997,497.54776,561.86017C497.60583,562.14984,497.41803,562.4318,497.1283,562.4898C496.83862,562.5479,496.5567,562.36005,496.49866,562.0704L496.49866,562.0704C490.34497,531.3665,484.13342,500.44498,489.17743,481.36847L489.17743,481.36847C489.84308,478.851,490.70447,476.53864,491.71878,474.37897L491.71878,474.37897C494.9143,467.57504,499.63248,462.2793,504.5063,456.80356L504.5063,456.80356C509.86737,450.78043,515.43774,444.51807,519.5776,435.70355L519.5776,435.70355C528.7151,416.24814,530.8758,384.40213,519.0921,364.86514L519.0921,364.86514C508.01633,346.5018,484.51257,338.86627,464.6747,338.86627L464.6747,338.86627C463.45813,338.86627,462.2562,338.89502,461.07233,338.95178L461.07233,338.95178C440.6372,339.93143,425.62628,349.24966,417.39215,362.4018L417.39215,362.4018C409.13797,375.586,407.64658,392.67416,406.1512,409.93793C406.12573,410.2323,405.8664,410.45026,405.57205,410.42477C405.27768,410.39926,405.05972,410.13995,405.0852,409.8456 Z"/> </g> <g style="fill:rgb(0,0,0); fill-opacity:1.0; stroke-linejoin: miter"> <path d="M464.03293,566.9525L464.0329,566.95215L464.02997,566.8974L464.03,566.89777C462.82166,544.60706,461.61597,522.3648,460.5016,503.18484L460.5016,503.18488L460.4684,502.6144L460.4684,502.61438L460.4349,502.03766L460.4349,502.03766C459.351,483.3818,458.5025,467.4969,466.09802,451.82773L466.09802,451.82773C469.3129,445.1956,474.03497,438.6146,478.68716,432.12842L478.68716,432.12842C483.28305,425.72076,487.8102,419.40604,490.8378,413.16016L490.8378,413.16016C492.13037,410.49365,493.14474,407.84912,493.77365,405.2253L493.77365,405.2253C497.36725,390.23315,488.44696,375.58502,477.32382,370.77408L477.32382,370.77408C474.3391,369.48315,471.18915,368.8983,468.03574,368.8983L468.03574,368.8983C459.46887,368.8983,450.90576,373.21686,445.6937,379.3491L445.6937,379.3491C438.56396,387.73755,437.66748,399.55212,436.77237,411.6088C436.7505,411.90347,436.4939,412.1246,436.19922,412.10272C435.90454,412.08084,435.6834,411.82425,435.7053,411.52957L435.7053,411.52957C436.5935,399.566,437.4805,387.3601,444.8784,378.65616L444.8784,378.65616C450.28067,372.3001,459.1354,367.82828,468.03574,367.82828L468.03574,367.82828C471.32217,367.82828,474.61823,368.4381,477.74857,369.79202L477.74857,369.79202C489.3259,374.7994,498.5347,389.953,494.81418,405.4747L494.81418,405.4747C494.16293,408.19165,493.1174,410.9105,491.80063,413.6269L491.80063,413.6269C488.72525,419.9713,484.13907,426.3631,479.5566,432.752L479.5566,432.752C474.8917,439.25595,470.22818,445.76047,467.06085,452.29446L467.06085,452.29446C459.60562,467.67422,460.4167,483.27667,461.50308,501.9756L461.50308,501.9756L461.5366,502.5523L461.5366,502.55228L461.56976,503.12274L461.56976,503.12277C462.68414,522.3026,463.89026,544.5523,465.09842,566.8399L465.09845,566.8403L465.10138,566.895C465.11734,567.1897,464.89114,567.4418,464.5961,567.45776C464.30106,567.47375,464.04892,567.24756,464.03293,566.9525 Z"/> </g> <g style="fill:rgb(0,0,0); fill-opacity:1.0; stroke-linejoin: miter"> <path d="M497.2446,562.8316L497.2446,562.8316L464.95142,567.34906C464.65878,567.38995,464.3884,567.186,464.34747,566.8933C464.30655,566.6007,464.51056,566.3303,464.80316,566.28937L464.80316,566.28937L497.09637,561.7719C497.38898,561.73096,497.6594,561.935,497.70032,562.22766C497.74127,562.5202,497.53723,562.79065,497.2446,562.8316 Z"/> </g> <g style="fill:rgb(0,0,0); fill-opacity:1.0; stroke-linejoin: miter"> <path d="M405.40817,409.53558L405.40817,409.53558L436.1896,410.43964C436.48492,410.4483,436.71732,410.69476,436.70865,410.9901C436.69995,411.28543,436.45352,411.51782,436.15817,411.50916L436.15817,411.50916L405.37677,410.60513C405.08142,410.59644,404.84903,410.34998,404.8577,410.05466C404.8664,409.7593,405.11285,409.52692,405.40817,409.53558 Z"/> </g> <g style="fill:rgb(0,0,0); fill-opacity:1.0; stroke-linejoin: miter"> <path d="M186.93925,687.5431L186.93925,687.5431L364.04678,687.868C364.3423,687.8685,364.58133,688.1085,364.58078,688.40393C364.58026,688.6994,364.34027,688.9385,364.0448,688.9379L364.0448,688.9379L186.93729,688.61304C186.64183,688.6125,186.40274,688.3725,186.40327,688.0771C186.40382,687.7816,186.64378,687.54254,186.93925,687.5431 Z"/> </g> <g style="fill:rgb(0,0,0); fill-opacity:1.0; stroke-linejoin: miter"> <path d="M245.65192,329.36685C256.53354,329.97705,267.13464,330.60037,273.6399,335.89685C280.14114,341.1901,282.65128,351.25674,283.8541,359.3588C285.0487,367.4055,284.92728,373.28867,284.80463,379.2068C284.80103,379.3808,284.8823,379.5457,285.02252,379.64883C285.1156,379.71732,285.22693,379.75287,285.33954,379.75287C285.39655,379.75287,285.4539,379.74377,285.50937,379.7252C286.65405,379.3419,287.68213,379.00378,288.55322,379.00378C289.5818,379.00378,290.5028,379.4656,290.89758,381.75452C291.60876,385.87842,290.41452,395.15323,288.61472,399.83746C286.8959,404.31088,284.71695,404.38828,282.38275,404.5164C282.09113,404.5324,281.8662,404.77933,281.87744,405.07123L282.01578,408.65372C282.0251,408.8951,282.19296,409.09293,282.41525,409.15085L282.4124,409.15085C282.40674,409.16275,282.40146,409.17496,282.3966,409.18744C282.28934,409.46274,282.42554,409.77292,282.70087,409.88016C284.85205,410.71832,286.97897,411.54736,288.9366,412.49512C290.942,413.46597,292.74457,414.54984,294.1896,415.87076C297.04965,418.48514,298.58435,422.08932,300.1676,425.82935C300.22324,425.96075,300.32907,426.0645,300.4616,426.1175L356.7252,448.62003L356.72162,448.62003C363.67688,458.5251,370.57346,468.35794,373.84232,474.98624C377.08948,481.57037,376.7279,484.9356,376.3723,488.34958C376.35657,488.50064,376.40576,488.65128,376.5075,488.76376L376.53696,488.7963L376.5371,488.79648C380.17712,492.82022,383.68335,496.7174,384.8885,500.2476C386.07416,503.72086,385.0338,506.8868,383.91156,510.24838C383.8476,510.44003,383.89703,510.65137,384.0394,510.7948C387.42786,514.207,390.7901,517.59344,392.93967,520.164C395.0725,522.71466,396.00598,524.45624,396.95367,526.22424L396.96246,526.24L402.3499,535.5244C402.4069,535.6225,402.49353,535.69995,402.5971,535.74554L402.64243,535.7655L402.6427,535.76556C408.64545,538.40436,414.78815,541.1092,419.76416,541.3074C419.96594,541.3154,420.1657,541.31934,420.3636,541.31934C424.85904,541.31934,428.36697,539.29175,431.755,537.34467C431.9479,537.2338,432.146,537.12006,432.33856,537.0099L432.3386,537.0098C436.03867,534.89246,439.81705,532.8985,443.60583,530.901L443.6103,530.901C443.65433,530.9124,443.69968,530.9182,443.74518,530.9182C443.8579,530.9182,443.9716,530.8827,444.0683,530.80927C444.3036,530.63055,444.3495,530.2949,444.1708,530.0596C443.30838,528.924,442.44995,527.8381,442.69992,524.38495C442.95636,520.84204,444.37296,514.91724,445.81488,508.90576L445.81042,508.90576C448.74756,503.39832,451.72455,497.81638,452.99966,493.27563C453.61792,491.07407,453.83496,489.12405,454.00586,487.5941C454.12183,486.55566,454.21292,485.7549,454.37842,485.16562C454.47986,484.8043,454.59564,484.57697,454.71936,484.43805C454.88004,484.2576,455.12744,484.14975,455.53403,484.14975C456.55695,484.14975,458.05954,484.81506,459.74567,485.60162L459.74106,485.60162C459.793,490.8693,460.1029,496.3235,460.4349,502.03766L460.4684,502.61438L460.4684,502.6144L460.5016,503.18488L460.5016,503.18484C461.31787,517.234,462.18314,532.9263,463.06253,549.077L463.05792,549.077L417.67078,585.56384L417.67078,585.56384L402.51062,594.0137L402.51062,594.0137L397.14935,589.49365L397.1454,589.49365C397.10062,589.2718,396.91708,589.09436,396.68002,589.06793C396.6679,589.0666,396.65573,589.06525,396.64352,589.06384L396.63956,589.06384C396.5392,588.9793,396.41687,588.93805,396.29517,588.93805C396.21033,588.93805,396.12582,588.95807,396.0493,588.9976L396.0493,588.9976C395.82214,588.97217,395.59464,588.94666,395.3858,588.923C387.8761,588.0721,380.5155,586.9811,373.50244,581.3974C366.03577,575.45264,358.93298,564.4047,351.75974,553.23486C351.6603,553.0801,351.4898,552.98895,351.30966,552.98895C351.28162,552.98895,351.25333,552.99115,351.22504,552.99567C351.0151,553.0293,350.845,553.18396,350.7917,553.3898C348.9403,560.5352,347.06073,567.7789,349.88116,578.53455C350.83432,582.1693,352.32364,586.20184,353.84546,590.32385C356.8239,598.39136,359.9078,606.7708,359.62326,613.5387C359.19598,623.70184,351.13718,630.3419,342.7938,637.1735C342.59033,637.3401,342.5381,637.62994,342.67065,637.85706C349.25595,649.1437,355.80978,660.379,359.23114,668.76904C362.5646,676.94354,362.91956,682.4085,363.21445,687.86646L363.21445,687.86646L187.65865,687.54443L187.65865,687.54443L204.75533,636.24316C204.80759,636.08636,204.78445,635.91425,204.69269,635.77686C204.60092,635.6394,204.45082,635.5521,204.28601,635.5403C198.43137,635.1208,193.13939,634.68475,191.40392,629.4158C189.98972,625.1223,190.87085,617.62103,191.94618,608.60425C192.24197,606.1238,192.55162,603.52716,192.82433,600.8829C194.08087,588.6998,194.5816,575.27924,195.08163,561.8822C195.0917,561.6123,194.89911,561.3773,194.6326,561.3341C194.60378,561.32947,194.57506,561.32715,194.54668,561.32715C194.31259,561.32715,194.10089,561.4812,194.03345,561.7123L193.98494,561.8785C191.36813,570.84424,188.7594,579.7472,185.0723,587.37494C183.51837,590.58984,181.77219,593.58,180.09544,596.4509C178.5738,599.05634,177.10677,601.56757,175.91751,604.0279C175.2935,605.3189,174.74352,606.60046,174.29951,607.88196C173.58913,609.9323,173.15752,611.96136,172.84006,613.90356C172.64822,615.0771,172.49744,616.2233,172.35295,617.3214C172.2178,618.3486,172.08797,619.33484,171.93463,620.2729C171.67343,621.87085,171.34709,623.30865,170.82462,624.559C169.15002,628.5664,165.38158,630.8519,161.37856,633.2088L161.37856,633.2088L144.80872,628.8667L144.80585,628.8659C143.83263,628.61664,142.73912,628.32324,141.68486,628.32324C140.80373,628.32324,139.95,628.5282,139.21686,629.1351L139.21683,629.13513C138.85245,629.43677,138.5295,629.8311,138.2051,630.2243L138.20506,630.2243C137.75125,630.7744,137.24243,631.3899,136.481,632.02026C135.41466,632.903,133.82607,633.8355,131.18854,634.5728C125.2325,636.2378,114.0965,636.875,102.850586,637.515C102.811905,637.5172,102.77371,637.52356,102.73642,637.534C98.358925,638.7623,94.112404,639.9465,90.881935,639.9465C90.462364,639.9465,90.05993,639.92645,89.676575,639.88403L89.676544,639.88403C87.7731,639.67334,86.325195,638.9016,85.08276,638.23566C84.27023,637.80005,83.45351,637.35223,82.68436,637.26715L82.684296,637.2671C82.64302,637.2626,82.60681,637.2594,82.56442,637.2567L82.564255,637.25665C82.51366,637.2535,82.46347,637.25195,82.41367,637.25195C81.51343,637.25195,80.74381,637.75323,80.05478,638.1841L80.05475,638.1841C79.21042,638.712,78.33774,639.2509,77.12019,639.3854C76.90294,639.40936,76.68286,639.4211,76.46301,639.4211C74.68158,639.4211,72.914474,638.6504,72.7738,637.37555C72.75638,637.21765,72.76001,637.0435,72.79155,636.8506L72.79155,636.85065C72.854996,636.4627,73.03146,635.9975,73.37846,635.44885C75.622635,631.9002,84.11218,626.0186,92.80841,620.0091C92.93965,619.91846,93.02359,619.7738,93.03729,619.6149C93.22525,617.4355,93.45233,614.8441,89.68466,613.6364C88.54393,613.2708,87.032166,613.03125,85.39862,612.7707C83.280716,612.43286,80.91138,612.054,78.65782,611.3316C77.266235,610.8856,75.930725,610.3117,74.739975,609.54553C71.42796,607.4144,69.32126,603.89557,69.65077,601.87964C69.775696,601.1153,70.25641,600.5188,71.35855,600.28156L71.35858,600.28156C71.73806,600.1998,72.178795,600.1619,72.6734,600.1619C75.50201,600.1619,80.09278,601.40045,85.06738,602.75653C88.477646,603.6862,92.01204,604.65015,95.12445,605.2199C98.338135,605.8083,101.09657,605.9756,103.52753,605.9756C105.255615,605.9756,106.81822,605.89105,108.26123,605.81305C109.51603,605.7452,110.66737,605.6833,111.75974,605.6833C112.26026,605.6833,112.74839,605.6963,113.228424,605.72766L113.228455,605.72766C117.64963,606.0166,121.43207,607.87195,125.32147,609.78687C125.397446,609.8243,125.47799,609.842,125.55732,609.842C125.75476,609.842,125.94465,609.73224,126.03775,609.54315C126.16826,609.278,126.05917,608.9574,125.79408,608.8269C125.500084,608.6821,125.20548,608.53705,124.91,608.3924L124.90875,608.3924L128.43607,602.9951C128.48427,602.92126,128.51352,602.83673,128.52118,602.749C129.04587,596.7385,129.56528,590.84186,131.32458,586.39136L131.32457,586.3913C132.57123,583.2375,134.44897,580.7933,136.26346,578.4358L136.26344,578.4358C136.99176,577.4896,137.71452,576.5507,138.3678,575.5971L138.36778,575.5971C140.64456,572.27356,142.07808,568.7743,143.48958,565.3337C143.53526,565.2223,143.54207,565.0988,143.50883,564.98303C142.9226,562.94055,142.31038,560.91614,144.37128,555.2618C146.45992,549.5311,151.26015,540.16943,156.08902,530.7542C156.12604,530.6821,156.14613,530.6024,156.14787,530.5214C156.38074,519.5176,156.61354,508.55658,158.4276,497.48315C160.2306,486.47705,163.59766,475.34702,166.98763,464.17596L166.98595,464.17596L225.97058,432.28015C226.0496,432.23746,226.11661,432.1755,226.16537,432.10004L229.51688,426.91638L229.51457,426.91638C229.52821,426.91174,229.54176,426.90656,229.5552,426.90076C229.7985,426.79587,229.92422,426.53192,229.86322,426.2828L229.86092,426.2828C229.88133,426.10593,229.81241,425.92493,229.66866,425.80737L229.66637,425.80737C226.76195,419.06982,223.88936,412.34097,221.81824,404.13815C219.70543,395.77017,218.42377,385.85458,217.92905,378.11392C217.43498,370.38348,217.7263,364.832,218.01907,359.25705C218.02054,359.22934,218.01982,359.2015,218.01697,359.1739C217.47258,353.9175,216.95401,348.81693,218.6696,344.1633C220.38364,339.5139,224.35461,335.26144,229.20795,332.86438C234.05547,330.47015,239.78847,329.9191,245.64946,329.36685 Z"/> </g> <g style="fill:rgb(0,0,0); fill-opacity:1.0; stroke-linejoin: miter"> <path d="M464.6747,338.86627C484.51257,338.86627,508.01633,346.5018,519.0921,364.86514C530.8758,384.40213,528.7151,416.24814,519.5776,435.70355C515.43774,444.51807,509.86737,450.78043,504.5063,456.80356C499.63248,462.2793,494.9143,467.57504,491.71878,474.37897C490.70447,476.53864,489.84308,478.851,489.17743,481.36847C484.14484,500.40182,490.31693,531.22675,496.4569,561.86206L496.45193,561.86206L465.0666,566.2525L465.0666,566.2525C463.86908,544.1616,462.67435,522.1341,461.56976,503.12277L461.56976,503.12274L461.5366,502.55228L461.5366,502.5523L461.50308,501.9756C460.4167,483.27667,459.60562,467.67422,467.06085,452.29446C470.22818,445.76047,474.8917,439.25595,479.5566,432.752C484.13907,426.3631,488.72525,419.9713,491.80063,413.6269C493.1174,410.9105,494.16293,408.19165,494.81418,405.4747C498.5347,389.953,489.3259,374.7994,477.74857,369.79202C474.61823,368.4381,471.32217,367.82828,468.03574,367.82828C459.1354,367.82828,450.28067,372.3001,444.8784,378.65616C437.7075,387.09305,436.65405,398.8203,435.78723,410.42783L435.78723,410.42783L406.18814,409.5585L406.18408,409.5585C407.6688,392.42398,409.19846,375.4894,417.39215,362.4018C425.62628,349.24966,440.6372,339.93143,461.07233,338.95178C462.2562,338.89502,463.45813,338.86627,464.6747,338.86627 Z"/> </g> <g style="fill:rgb(0,0,0); fill-opacity:1.0; stroke-linejoin: miter"> <path d="M489.73215,475.48093L489.73227,475.48096L489.78226,475.48682L489.78214,475.4868C493.58392,475.93146,498.77072,476.395,498.63217,479.0426L498.63217,479.0426C498.51068,481.36453,493.68054,485.08026,489.37085,488.45944L489.30304,487.57214C492.38693,489.3069,495.70352,491.15073,497.04865,493.61795L497.04865,493.61795C498.41818,496.12994,497.7092,499.1856,497.0897,501.96002L496.7839,501.35413L496.8187,501.3695L496.81866,501.3695C500.10278,502.82135,504.54858,504.6527,503.1576,507.9815L503.1576,507.9815C501.93387,510.90997,495.80957,514.887,490.01074,518.68365L490.24118,518.12573L490.9848,521.6539L490.22342,521.28503L490.2614,521.2662L490.26245,521.2656C491.39224,520.7078,492.67148,520.07007,493.9402,520.07007L493.9402,520.07007C494.49353,520.07007,495.04645,520.18933,495.58612,520.4793L495.58612,520.4793C497.28656,521.39294,498.93002,524.1272,498.05173,526.3396L498.05173,526.3396C497.20303,528.4775,493.99335,529.84344,491.18704,531.0756C490.9165,531.1944,490.6009,531.0714,490.4821,530.80084C490.36328,530.5303,490.48633,530.21466,490.75687,530.0959L490.75687,530.0959C493.78638,528.7657,496.41223,527.5695,497.05722,525.9448L497.05722,525.9448C497.67252,524.3949,496.46722,522.1673,495.0797,521.4218L495.0797,521.4218C494.70938,521.22284,494.3325,521.14,493.9402,521.14L493.9402,521.14C492.97025,521.14,491.92825,521.63654,490.73615,522.2251L490.73718,522.22455L490.6992,522.2434C490.54996,522.3171,490.37622,522.3176,490.22754,522.2454C490.07886,522.1732,489.9719,522.0363,489.9378,521.8746L489.9378,521.8746L489.19418,518.34644C489.1487,518.13074,489.2402,517.90924,489.42462,517.7885L489.42462,517.7885C495.43088,513.8561,501.11053,510.10516,502.17035,507.56897L502.17035,507.56897C503.05533,505.45114,500.31665,504.0858,496.38605,502.34814L496.38602,502.34814L496.35123,502.33276C496.11786,502.22958,495.98984,501.97592,496.04544,501.72687L496.04544,501.72687C496.6917,498.83252,497.2487,496.22018,496.1092,494.13016L496.1092,494.13016C494.94562,491.99597,491.97806,490.30453,488.77844,488.5047C488.62265,488.41705,488.5209,488.25742,488.5073,488.0792C488.49368,487.90097,488.56998,487.7277,488.71063,487.6174L488.71063,487.6174C493.3533,483.97714,497.47537,480.67355,497.56363,478.9867L497.56363,478.9867C497.63403,477.6413,494.3553,477.099,489.6578,476.54953L489.65768,476.5495L489.6077,476.54364C489.31436,476.50934,489.10428,476.2436,489.1386,475.95013C489.17294,475.65668,489.4387,475.4466,489.73215,475.48093 Z"/> </g> <g style="fill:rgb(0,0,0); fill-opacity:1.0; stroke-linejoin: miter"> <path d="M488.9252,488.58725L488.9252,488.58725C492.06854,490.35648,494.96338,492.0285,496.1092,494.13013C497.24863,496.21997,496.6917,498.83264,496.04544,501.72687C495.9898,501.97592,496.11783,502.22958,496.35126,502.33276C500.29608,504.07663,503.05872,505.443,502.17035,507.56897C501.1295,510.05997,495.6306,513.7236,489.74377,517.5795L489.74377,517.5795C488.4171,506.78302,487.92636,496.891,488.92032,488.58725 Z"/> </g> <g style="fill:rgb(0,0,0); fill-opacity:1.0; stroke-linejoin: miter"> <path d="M491.82343,476.82C495.3266,477.2957,497.62268,477.85754,497.56363,478.9867C497.47775,480.62805,493.57257,483.80026,489.08487,487.32376L489.08484,487.32376C489.36615,485.32898,489.73865,483.4317,490.21185,481.642L490.21188,481.642C490.6608,479.9441,491.20087,478.34277,491.8185,476.82 Z"/> </g> <g style="fill:rgb(0,0,0); fill-opacity:1.0; stroke-linejoin: miter"> <path d="M493.9402,521.14C494.3325,521.14,494.70938,521.22284,495.0797,521.4218C496.46722,522.1673,497.67252,524.3949,497.05722,525.9448C496.46597,527.43414,494.2102,528.56335,491.5048,529.76587L491.5048,529.76587C491.0933,527.23956,490.7113,524.7456,490.36603,522.2915L490.37094,522.2915C490.40073,522.2966,490.43088,522.29913,490.46103,522.29913C490.54242,522.29913,490.62393,522.2806,490.6992,522.2434L490.73608,522.2251L490.73615,522.2251C491.92825,521.63654,492.97025,521.14,493.9402,521.14 Z"/> </g> </g> </svg>